<svg width="150" height="150" viewBox="0 0 150 150" fill="none" xmlns="http://www.w3.org/2000/svg">
<path fill-rule="evenodd" clip-rule="evenodd" d="M123.705 14.7326C122.207 16.6304 120.582 18.4609 118.83 20.2125C94.6233 44.4192 55.3767 44.4192 31.17 20.2125C29.4184 18.4609 27.7934 16.6304 26.2953 14.7326C24.1961 16.4333 22.1652 18.2599 20.2125 20.2125C18.2599 22.1652 16.4333 24.1961 14.7326 26.2953C16.6304 27.7934 18.4609 29.4184 20.2125 31.17C44.4192 55.3767 44.4192 94.6233 20.2125 118.83C18.4609 120.582 16.6304 122.207 14.7326 123.705C16.4333 125.804 18.2599 127.835 20.2125 129.787C22.1652 131.74 24.1961 133.567 26.2953 135.267C27.7934 133.37 29.4184 131.539 31.17 129.787C55.3767 105.581 94.6233 105.581 118.83 129.787C120.582 131.539 122.207 133.37 123.705 135.267C125.804 133.567 127.835 131.74 129.787 129.787C131.74 127.835 133.567 125.804 135.267 123.705C133.37 122.207 131.539 120.582 129.787 118.83C105.581 94.6233 105.581 55.3767 129.787 31.17C131.539 29.4183 133.37 27.7934 135.267 26.2953C133.567 24.1961 131.74 22.1652 129.787 20.2125C127.835 18.2599 125.804 16.4333 123.705 14.7326ZM100.399 49.6012C83.9764 55.2846 66.0236 55.2846 49.6012 49.6012C55.2846 66.0236 55.2846 83.9764 49.6012 100.399C66.0236 94.7154 83.9764 94.7154 100.399 100.399C94.7154 83.9764 94.7154 66.0236 100.399 49.6012Z" fill="#3F51B5"/>
<path d="M144.526 40.7541C141.196 42.5187 138.07 44.8027 135.266 47.6063C120.137 62.7354 120.137 87.2646 135.266 102.394C138.07 105.197 141.196 107.481 144.526 109.246C146.867 104.493 148.692 99.5494 150 94.4999C148.663 93.6302 147.396 92.609 146.224 91.4362C137.146 82.3588 137.146 67.6412 146.224 58.5638C147.396 57.391 148.663 56.3698 150 55.5001C148.692 50.4506 146.867 45.5073 144.526 40.7541Z" fill="#3F51B5"/>
<path d="M109.246 144.526C107.481 141.196 105.197 138.07 102.394 135.266C87.2646 120.137 62.7354 120.137 47.6063 135.266C44.8027 138.07 42.5187 141.196 40.7541 144.526C45.5073 146.867 50.4506 148.692 55.5001 150C56.3698 148.663 57.391 147.396 58.5638 146.224C67.6412 137.146 82.3588 137.146 91.4362 146.224C92.609 147.396 93.6302 148.663 94.4999 150C99.5494 148.692 104.493 146.867 109.246 144.526Z" fill="#3F51B5"/>
<path d="M5.47433 109.246C8.80385 107.481 11.9302 105.197 14.7338 102.394C29.8629 87.2646 29.8629 62.7354 14.7338 47.6063C11.9302 44.8027 8.80385 42.5187 5.47433 40.7541C3.13257 45.5073 1.30779 50.4506 0 55.5001C1.33669 56.3698 2.60356 57.391 3.7763 58.5638C12.8538 67.6412 12.8538 82.3588 3.7763 91.4362C2.60356 92.609 1.33669 93.6302 0 94.4999C1.30779 99.5494 3.13257 104.493 5.47433 109.246Z" fill="#3F51B5"/>
<path d="M109.246 5.47433C104.493 3.13257 99.5494 1.30779 94.4999 4.17995e-06C93.6302 1.33669 92.609 2.60357 91.4362 3.7763C82.3588 12.8538 67.6412 12.8538 58.5638 3.7763C57.391 2.60356 56.3698 1.33669 55.5001 0C50.4506 1.30779 45.5073 3.13257 40.7541 5.47433C42.5187 8.80386 44.8027 11.9302 47.6063 14.7338C62.7354 29.8629 87.2646 29.8629 102.394 14.7338C105.197 11.9302 107.481 8.80386 109.246 5.47433Z" fill="#3F51B5"/>
</svg>
