<svg width="1252" height="308" fill="none" xmlns="http://www.w3.org/2000/svg"><path fill-rule="evenodd" clip-rule="evenodd" d="M191.3 304a112.5 112.5 0 0 0 28.9-220.2A112.6 112.6 0 0 0 0 116.5V304h191.3Zm-78.8-112.5a75 75 0 0 0 75-75 75 75 0 0 0-75 75Zm65.2-112a112.5 112.5 0 0 0-98.1 144.1c10.4 3.4 21.3 5.2 32.7 5.2 3.4 0 6.9 0 10.2-.2 0 0 0-.1 0 0 54.2-4.8 97.4-48 102-102.3a75 75 0 0 1-37 140.2h-150V112.7a75 75 0 0 1 140.2-33.3Z" fill="#000"/><path d="M441.4 59.9V235l-26.5 9.9a24.2 24.2 0 0 1-2.1.5c-.4 0-.7-.1-1-.4a.8.8 0 0 1-.3-.7v-172c0-.5-.1-.9-.4-1.2-.2-.3-.6-.5-1.2-.5h-8.1c-.5 0-.8 0-1-.2a.8.8 0 0 1-.2-.6c0-.4.1-.6.3-.7l.7-.3 35.9-10 1.5-.3 1-.1c.4 0 .8.1 1 .4.3.2.4.6.4 1Zm-2.1 93.3-1.4-1.4c6-7.3 11.8-12.4 17.5-15.4a43.4 43.4 0 0 1 59.3 20.6 66 66 0 0 1 5.8 29c0 12-2.2 22.7-6.6 31.9a49 49 0 0 1-45.4 28.6c-8.3 0-15-1.6-20.3-4.8a36 36 0 0 1-12.7-13.2l2.3-1.1a28 28 0 0 0 9.3 11.1c4 2.7 8.6 4 14 4s10.3-1.8 14.6-5.3c4.5-3.4 8-9.1 10.4-17 2.6-7.9 3.9-18.4 3.9-31.4 0-11.9-1-21.6-3.3-29a36 36 0 0 0-9-16.7 18.8 18.8 0 0 0-13.2-5.3c-4 0-8.3 1.2-12.6 3.7a42 42 0 0 0-12.6 11.8ZM572 133.6v103.6c0 1.1.2 2 .6 2.7.5.6 1.3 1 2.4 1.2l6.9 1.3c.5 0 .8 0 1 .3l.2.7c0 .1 0 .3-.2.4-.2.2-.4.3-.8.3h-50.4c-.2 0-.5 0-.7-.3-.2-.1-.3-.3-.3-.4 0-.3.1-.5.3-.6l1-.3 7.1-1.4c1.1-.2 1.9-.6 2.3-1.3a4 4 0 0 0 .7-2.4v-91.4c0-.5-.1-.9-.4-1.2-.2-.3-.6-.4-1.2-.4h-8.1c-.4 0-.7-.1-.9-.3a.8.8 0 0 1-.3-.6c0-.3.1-.4.3-.5l.7-.4 36-10 1.4-.4 1-.1c.4 0 .8.2 1 .5.3.3.4.6.4 1Zm-15.5-17.3a17 17 0 0 1-12.9-5.2 18 18 0 0 1-4.9-12.8c0-5 1.7-9.3 5-12.8a17 17 0 0 1 12.8-5.3 17.7 17.7 0 0 1 18 18.1c0 5-1.7 9.3-5.1 12.8a17 17 0 0 1-12.9 5.3Zm74.8 17.4v103.7c0 .9.3 1.7.8 2.4.5.8 1.3 1.3 2.3 1.6l7 1c.7.1 1 .4 1 1 0 .4-.4.7-1.2.7h-50c-.3 0-.6 0-.9-.3-.2-.1-.2-.3-.2-.4 0-.3 0-.5.3-.7.3-.1.6-.3 1-.3l7-1.3c1.1-.2 1.9-.5 2.3-1.1.5-.7.7-1.4.7-2.3v-91.3c0-.6 0-1-.3-1.4-.2-.4-.6-.7-1.3-.7h-8.5c-.2 0-.4 0-.6-.2-.2-.2-.3-.3-.3-.5 0-.3.1-.5.3-.6.2-.2.4-.3.9-.4l35.8-10.1 1.5-.3 1-.1c.5 0 .9.2 1 .5.3.3.4.7.4 1.1Zm-2.5 24.7-1.2-1.2 4.3-4.1a88 88 0 0 1 23-16.5c6.8-3.2 13.2-4.8 19-4.8 8.2 0 14.9 2.6 20 7.7 5.3 5 8 13 8 23.7v74.4c0 1 .2 2 .8 2.6a4 4 0 0 0 2.5 1.3l5 .8c.8.2 1.2.6 1.2 1 0 .6-.5.8-1.5.8h-47.7c-.7 0-1-.3-1-.8 0-.4.4-.8 1.2-1l6.2-.8c1.5-.4 2.6-1 3-2a8 8 0 0 0 .8-3.7v-69.3c0-7-1.7-12.3-5-15.9a17.1 17.1 0 0 0-13.2-5.5c-3.8 0-7.5.8-10.9 2.3a35.6 35.6 0 0 0-10.4 7l-4 4Zm69.9 0-1.3-1.2 4-4.5a74.1 74.1 0 0 1 18.3-15.8c5.9-3.4 12-5 18.2-5 7.7 0 14 2.5 19 7.6 5 5 8.2 13 9.5 23.8l9.4 74c.2 1.3.6 2.3 1.1 3a4 4 0 0 0 2.5 1.3l5 .9.7.3c.2.1.3.3.3.6 0 .1 0 .3-.3.4-.2.2-.5.3-.8.3H735c-.7 0-1-.3-1-.8 0-.4.4-.8 1.3-1l6-.8c1.7-.4 2.8-1 3.3-2.2.6-1 .8-2.3.7-3.7l-8-69.1c-.9-7-2.7-12.3-5.5-15.9a14 14 0 0 0-11.8-5.5c-3 0-6 .8-8.7 2.3a35.7 35.7 0 0 0-8.7 6.6l-3.7 4.3ZM848 131.7c11 0 20.8 2.5 29.3 7.4 8.5 5 15.1 11.8 20 20.5a60.6 60.6 0 0 1 7.2 30c0 11.2-2.5 21-7.5 29.7a52.6 52.6 0 0 1-20.5 20 61 61 0 0 1-30 7.2 59 59 0 0 1-29.2-7.1 52.6 52.6 0 0 1-20-20 60.4 60.4 0 0 1-7-29.8c0-11.2 2.4-21.2 7.3-29.8a54 54 0 0 1 20.4-20.6c8.8-5 18.8-7.4 30-7.4Zm6.1 112.7a17 17 0 0 0 12.7-7.5c3.3-4.5 5.5-11 6.6-19.4 1.1-8.4 1-18.7-.4-30.9a128.8 128.8 0 0 0-6.6-30.3c-3-8-6.7-13.9-11-17.6a18.5 18.5 0 0 0-14.6-4.7c-5.4.5-9.7 3-13 7.6-3.2 4.6-5.3 11.1-6.3 19.5s-.8 18.7.6 30.7 3.7 22 6.7 30 6.7 13.9 11 17.7c4.4 3.8 9.2 5.4 14.3 4.9Zm99.4-62.8c0-11 1.6-20.1 4.8-27.5 3.1-7.4 7.2-13 12.1-16.7 5-3.8 10.2-5.7 15.6-5.7 6.2 0 11 2 14.3 6 3.3 3.8 5 9.3 5 16.4 0 6.3-1.5 10.9-4.4 13.9-3 3-6.5 4.5-10.9 4.5-4 0-7-1.1-9-3.4-2-2.2-3-5.6-3.2-10l-.3-4c0-2.6-.5-4.5-1.5-5.8-1-1.4-2.7-2-5.2-2-2.6 0-5.1 1.2-7.5 3.8a29.7 29.7 0 0 0-6 11.8 71.2 71.2 0 0 0-2.3 19.5l-1.5-.8Zm1.5-47.2v102c0 .9.3 1.7.8 2.5.6.7 1.3 1.2 2.3 1.3l12.4 2c.5.1.8.3.9.4.2.2.2.4.2.7 0 .1 0 .3-.3.4-.2.2-.4.3-.8.3H915c-.3 0-.6 0-.9-.3l-.3-.6.3-.5 1.3-.5 6.7-1.1c1.1-.2 1.9-.5 2.3-1.1.5-.7.7-1.4.7-2.3v-92.1c0-.6 0-1-.3-1.4-.2-.4-.6-.6-1.3-.6H915c-.1 0-.4 0-.6-.3-.2-.1-.3-.3-.3-.4 0-.3.1-.5.3-.7.2-.1.5-.3.9-.3l36-8.7 1.3-.2 1-.2c.5 0 .9.2 1 .6.3.3.4.7.4 1Zm121.8 98v-1.2l-1.4 1.3V152c0-6-1.2-10.6-3.7-13.8-2.5-3.1-6.1-4.7-10.8-4.7-5.1 0-9 1.3-11.6 3.9a12.2 12.2 0 0 0-3.9 8.8v10.2a14 14 0 0 1-4.3 10.5c-3 2.8-6.8 4.2-11.4 4.2-3.3 0-6-1-8.1-2.8-2.1-2-3.2-5-3.2-9 0-4.5 1.8-8.8 5.3-13a38 38 0 0 1 15.5-10.4c6.9-2.8 15.4-4.2 25.4-4.2 13.6 0 23.8 3 30.6 8.7a29.7 29.7 0 0 1 10.2 24.2v64.9c0 3 .5 5 1.5 6.4 1 1.2 2.3 1.8 3.8 1.8s2.8-.4 4-1.3c1.1-1 1.9-2.5 2.2-4.7 0-.2 0-.4.2-.4.1-.2.3-.3.5-.3.1 0 .3 0 .3.3.2 0 .3.2.3.4a11 11 0 0 1-2.3 5.8 19 19 0 0 1-7 6.1 27.5 27.5 0 0 1-13 2.7c-6.6 0-11.5-1.3-14.6-4-3-2.5-4.5-5.8-4.5-10Zm-64.6-12.7c0-9 3.7-16.3 11.2-21.8 7.5-5.6 19.4-8.4 35.8-8.4 5 0 9.2.5 12.5 1.6 3.3 1 6.4 2.3 9.2 3.8l-1 .8a39.8 39.8 0 0 0-18.5-4.3c-6.2.1-11 2.2-14.5 6.4-3.3 4.1-5 10-5 17.6 0 7.3 1.7 12.9 5 16.7a16 16 0 0 0 12.5 5.7 23.6 23.6 0 0 0 18.8-9.6l1.4.8a35.8 35.8 0 0 1-15.2 12.9c-6.3 2.9-13.1 4.3-20.5 4.3-9.4 0-17-2.4-23-7.3a24 24 0 0 1-8.7-19.2ZM1166 60V237c0 1.1.2 2 .6 2.7.5.6 1.3 1 2.4 1.2l6.9 1.3c.8.1 1.2.4 1.2 1 0 .4-.3.7-1 .7h-50.4c-.2 0-.5 0-.7-.3-.2-.1-.3-.3-.3-.4 0-.3.2-.5.4-.7.3-.2.7-.4 1.3-.5l6.7-1.1c1-.2 1.8-.6 2.3-1.3a4 4 0 0 0 .7-2.4v-165c0-.4-.1-.8-.4-1-.2-.4-.6-.5-1.2-.5h-8.1c-.5 0-.8-.1-1-.3a.8.8 0 0 1-.2-.6c0-.4.1-.6.3-.7l.7-.3 35.9-10 1.5-.3 1-.1c.4 0 .8.1 1 .4.3.2.4.6.4 1Zm-2.5 98.2-1.3-1.2 4.5-4a124 124 0 0 1 21.4-16.2c6-3.3 11.8-5 17-5 7.7 0 13.6 2.5 17.9 7.3 4.2 4.8 7 12.2 8.2 22.4l9.4 75c.2 1.3.5 2.4 1 3.2.6.9 1.5 1.4 2.8 1.7l6 1c.5 0 .8.2 1 .3l.2.7c0 .1 0 .3-.3.4-.1.2-.4.3-.7.3h-51.3c-.7 0-1-.3-1-.8 0-.4.4-.8 1.3-1l7.1-1.2c1.4-.2 2.3-.7 2.8-1.5.6-.8.8-1.9.6-3.1l-8.3-72a31 31 0 0 0-4.7-14.8c-2.3-3-5.8-4.6-10.5-4.6-3 0-6.1.8-9.1 2.4-3 1.5-6.2 3.8-9.6 6.8l-4.4 4Z" fill="#000"/></svg>