<svg width="1441" height="300" fill="none" xmlns="http://www.w3.org/2000/svg"><path d="M75.3 14.2a85.3 85.3 0 0 0 75.6 47.2A85.2 85.2 0 0 0 226 15C216.2 9 205.6 4 194.5.5a51 51 0 0 1-43.6 25.1 51 51 0 0 1-44-25.6 146 146 0 0 0-31.6 14.2Z" fill="#000"/><path d="M31.3 54.2a296.8 296.8 0 0 0 237.8.6c7 9.5 13 19.9 17.8 31A329.8 329.8 0 0 1 13.4 85c4.8-11 10.9-21.4 18-30.9ZM1 168.6A164.6 164.6 0 0 1 1 133H299a164.7 164.7 0 0 1-.2 35.7H1.1ZM286.2 215.4a329.8 329.8 0 0 0-272.1.7c5 11 11 21.3 18.2 30.7a296.8 296.8 0 0 1 235.8-.5c7.1-9.5 13.2-19.8 18.1-30.9Z" fill="#000"/><path d="M225.3 285.1a85.1 85.1 0 0 0-74.4-45A85.2 85.2 0 0 0 76 286c10 6 20.7 10.7 31.9 14.1a50.9 50.9 0 0 1 43-24.1c17.7 0 33.4 9.4 42.6 23.7a146 146 0 0 0 31.8-14.5ZM415 113h30.5v125H415V113Zm15.5-16.1a16 16 0 0 1-11.4-4.4 15 15 0 0 1-4.6-11.3 15.5 15.5 0 0 1 15.9-15.6c4.4 0 8.1 1.5 11.1 4.5s4.6 6.7 4.6 11.2a15.3 15.3 0 0 1-15.6 15.6ZM589.1 159v79h-30.5v-71a26.3 26.3 0 0 0-13.4-23c-4-2.4-8.5-3.6-13.4-3.6a26.6 26.6 0 0 0-26.6 26.6v71h-30.5l-.1-125H505v11.1a46 46 0 0 1 15.3-10.6 47.4 47.4 0 0 1 44 2.8 49.7 49.7 0 0 1 24.7 42.7ZM706 50.5h30.4V238H706v-15.6c-4 5.6-9 10.1-15 13.6-6.2 3.5-13.2 5.3-21.2 5.3-9.1 0-17.6-1.8-25.5-5.2a68 68 0 0 1-21-14.1 68 68 0 0 1-14.1-21c-3.5-8-5.2-16.4-5.2-25.5a63.7 63.7 0 0 1 19.3-46.4 63.7 63.7 0 0 1 46.5-19.4c8 0 15 1.8 21.1 5.3 6 3.4 11.1 8 15.1 13.6V50.5Zm-36 161.4a31 31 0 0 0 17.3-4.9c5-3.3 9-7.6 11.8-13.1a40 40 0 0 0 4.2-18.4c0-6.8-1.4-12.9-4.2-18.4-2.9-5.6-6.8-10-12-13.2a32.6 32.6 0 0 0-34.8.1 36.7 36.7 0 0 0-17.1 31.5 36.2 36.2 0 0 0 17.4 31.5 33 33 0 0 0 17.5 4.9Zm91.5-20.2V113H792v70.8c0 4.9 1.2 9.4 3.6 13.4a26.5 26.5 0 0 0 23 13.1 26.3 26.3 0 0 0 26.7-26.6V113H876l.2 125h-30.5l-.2-11.4a47 47 0 0 1-34.4 14.6c-9 0-17.3-2.2-24.8-6.6a48.3 48.3 0 0 1-24.6-42.9Zm251.8 46.3h-35l-28.6-49.1-17.5 20.8V238h-30.5V50.5h30.5v111.9l41.4-49.4h39.9l-43 51.1 42.8 73.9Zm88.5-94.5h-24.3V238h-30.5v-94.5h-18.5V113h18.5V73.7h30.5V113h24.3v30.5Zm20.6-30.5h30.5v125h-30.5V113Zm15.5-16.1a16 16 0 0 1-11.4-4.4 15 15 0 0 1-4.6-11.3 15.6 15.6 0 0 1 15.9-15.6c4.4 0 8.1 1.5 11.1 4.5 3.1 3 4.6 6.7 4.6 11.2a15.3 15.3 0 0 1-15.6 15.6ZM1256.5 238h-39.3l-45.5-125.1h32.5l32.7 90 32.6-90h32.5L1256.5 238Zm114.1 3.3c-11.5 0-22-3-31.5-9a66.3 66.3 0 0 1-31-57 66.5 66.5 0 0 1 38.3-60.7 58.4 58.4 0 0 1 24.2-5.1 60.7 60.7 0 0 1 47.5 23.1 69.3 69.3 0 0 1 14.2 53.3h-91.4c1.1 4.6 3 8.8 5.7 12.6 2.7 3.7 6 6.6 10.2 8.9a30.2 30.2 0 0 0 28.3-.4c4.5-2.7 8.1-6.3 11-10.8l31.2 7.3c-5.1 11-12.7 20.2-22.8 27.3a58 58 0 0 1-33.9 10.4ZM1340 163h61.5c-1-5-2.9-9.5-5.9-13.5a33 33 0 0 0-10.9-9.8 28.3 28.3 0 0 0-27.8 0 33.3 33.3 0 0 0-11 9.7c-2.8 4-4.8 8.5-6 13.6Z" fill="#000"/></svg>