<svg width="942" height="408" viewBox="0 0 942 408" fill="none" xmlns="http://www.w3.org/2000/svg">
<g filter="url(#filter0_d_12_195)">
<rect x="187" width="600" height="400" rx="20" fill="white"/>
<rect x="188" y="1" width="598" height="398" rx="19" stroke="#A8A5A0" stroke-width="2"/>
</g>
<mask id="mask0_12_195" style="mask-type:alpha" maskUnits="userSpaceOnUse" x="187" y="0" width="600" height="400">
<rect x="188" y="1" width="598" height="398" rx="19" fill="white" stroke="#A8A5A0" stroke-width="2"/>
</mask>
<g mask="url(#mask0_12_195)">
<path d="M351 178.67L385 178.667L419 241L453 150.333L487 204L521 122L555 229L589 178.667L623 178.67" stroke="#2D2E2E" stroke-width="15" stroke-linecap="square" stroke-linejoin="round"/>
<path d="M207 1H767C777.493 1 786 9.50659 786 20V39H188V20C188 9.50659 196.507 1 207 1Z" stroke="#A8A5A0" stroke-width="2"/>
<path d="M247 398V296" stroke="#E8E7E4" stroke-width="2"/>
<path d="M327 398V296" stroke="#E8E7E4" stroke-width="2"/>
<path d="M407 398V296" stroke="#E8E7E4" stroke-width="2"/>
<path d="M487 398V296" stroke="#E8E7E4" stroke-width="2"/>
<path d="M567 398V296" stroke="#E8E7E4" stroke-width="2"/>
<path d="M647 398V296" stroke="#E8E7E4" stroke-width="2"/>
<path d="M727 398V296" stroke="#E8E7E4" stroke-width="2"/>
<path d="M187.5 347H785.5" stroke="#E8E7E4" stroke-width="2"/>
<path d="M187.5 296H785.5" stroke="#E8E7E4" stroke-width="2"/>
</g>
<g filter="url(#filter1_d_12_195)">
<circle cx="848" cy="157" r="90" fill="white"/>
<circle cx="848" cy="157" r="89" stroke="#A8A5A0" stroke-width="2"/>
</g>
<circle cx="848.32" cy="156.606" r="20" transform="rotate(60 848.32 156.606)" fill="#FF5722"/>
<line x1="852.827" y1="154.692" x2="905.404" y2="124.337" stroke="#FF5722" stroke-width="10" stroke-linecap="round"/>
<circle cx="487" cy="347" r="20" fill="#FF5722"/>
<circle cx="647" cy="347" r="20" fill="#3F51B5"/>
<g filter="url(#filter2_d_12_195)">
<rect x="4" y="247" width="400" height="100" rx="10" fill="white"/>
<rect x="5" y="248" width="398" height="98" rx="9" stroke="#A8A5A0" stroke-width="2"/>
</g>
<rect x="30" y="281" width="10" height="30" rx="5" fill="#2D2E2E"/>
<rect x="50" y="281" width="10" height="30" rx="5" fill="#2D2E2E"/>
<rect x="70" y="281" width="10" height="30" rx="5" fill="#2D2E2E"/>
<rect x="90" y="281" width="10" height="30" rx="5" fill="#2D2E2E"/>
<rect x="110" y="281" width="10" height="30" rx="5" fill="#2D2E2E"/>
<rect x="130" y="281" width="10" height="30" rx="5" fill="#2D2E2E"/>
<rect x="150" y="281" width="10" height="30" rx="5" fill="#FF5722"/>
<rect x="170" y="281" width="10" height="30" rx="5" fill="#2D2E2E"/>
<rect x="190" y="281" width="10" height="30" rx="5" fill="#3F51B5"/>
<rect x="210" y="281" width="10" height="30" rx="5" fill="#2D2E2E"/>
<rect x="230" y="281" width="10" height="30" rx="5" fill="#FF5722"/>
<rect x="250" y="281" width="10" height="30" rx="5" fill="#2D2E2E"/>
<rect x="270" y="281" width="10" height="30" rx="5" fill="#2D2E2E"/>
<rect x="290" y="281" width="10" height="30" rx="5" fill="#2D2E2E"/>
<rect x="310" y="281" width="10" height="30" rx="5" fill="#2D2E2E"/>
<rect x="330" y="281" width="10" height="30" rx="5" fill="#2D2E2E"/>
<rect x="350" y="281" width="10" height="30" rx="5" fill="#2D2E2E"/>
<defs>
<filter id="filter0_d_12_195" x="183" y="0" width="608" height="408" filterUnits="userSpaceOnUse" color-interpolation-filters="sRGB">
<feFlood flood-opacity="0" result="BackgroundImageFix"/>
<feColorMatrix in="SourceAlpha" type="matrix" values="0 0 0 0 0 0 0 0 0 0 0 0 0 0 0 0 0 0 127 0" result="hardAlpha"/>
<feOffset dy="4"/>
<feGaussianBlur stdDeviation="2"/>
<feComposite in2="hardAlpha" operator="out"/>
<feColorMatrix type="matrix" values="0 0 0 0 0 0 0 0 0 0 0 0 0 0 0 0 0 0 0.25 0"/>
<feBlend mode="normal" in2="BackgroundImageFix" result="effect1_dropShadow_12_195"/>
<feBlend mode="normal" in="SourceGraphic" in2="effect1_dropShadow_12_195" result="shape"/>
</filter>
<filter id="filter1_d_12_195" x="754" y="67" width="188" height="188" filterUnits="userSpaceOnUse" color-interpolation-filters="sRGB">
<feFlood flood-opacity="0" result="BackgroundImageFix"/>
<feColorMatrix in="SourceAlpha" type="matrix" values="0 0 0 0 0 0 0 0 0 0 0 0 0 0 0 0 0 0 127 0" result="hardAlpha"/>
<feOffset dy="4"/>
<feGaussianBlur stdDeviation="2"/>
<feComposite in2="hardAlpha" operator="out"/>
<feColorMatrix type="matrix" values="0 0 0 0 0 0 0 0 0 0 0 0 0 0 0 0 0 0 0.25 0"/>
<feBlend mode="normal" in2="BackgroundImageFix" result="effect1_dropShadow_12_195"/>
<feBlend mode="normal" in="SourceGraphic" in2="effect1_dropShadow_12_195" result="shape"/>
</filter>
<filter id="filter2_d_12_195" x="0" y="247" width="408" height="108" filterUnits="userSpaceOnUse" color-interpolation-filters="sRGB">
<feFlood flood-opacity="0" result="BackgroundImageFix"/>
<feColorMatrix in="SourceAlpha" type="matrix" values="0 0 0 0 0 0 0 0 0 0 0 0 0 0 0 0 0 0 127 0" result="hardAlpha"/>
<feOffset dy="4"/>
<feGaussianBlur stdDeviation="2"/>
<feComposite in2="hardAlpha" operator="out"/>
<feColorMatrix type="matrix" values="0 0 0 0 0 0 0 0 0 0 0 0 0 0 0 0 0 0 0.25 0"/>
<feBlend mode="normal" in2="BackgroundImageFix" result="effect1_dropShadow_12_195"/>
<feBlend mode="normal" in="SourceGraphic" in2="effect1_dropShadow_12_195" result="shape"/>
</filter>
</defs>
</svg>
