<svg width="655" height="200" viewBox="0 0 655 200" fill="url(#myGradient)" xmlns="http://www.w3.org/2000/svg">
<defs>
    <linearGradient id="myGradient" gradientTransform="rotate(90)">
      <stop offset="0%" stop-color="#F7F5F2" />
      <stop offset="100%"  stop-color="#fffdf9" />
    </linearGradient>
  </defs>
<path d="M10 0H0V200H10V0Z" />
<path d="M25 52.6316H15V200H25V52.6316Z" />
<path d="M30 82.7068H40V200H30V82.7068Z" />
<path d="M55 115.789H45V200H55V115.789Z" />
<path d="M60 156.391H70V200H60V156.391Z" />
<path d="M85 145.865H75V200H85V145.865Z" />
<path d="M90 133.835H100V200H90V133.835Z" />
<path d="M115 142.857H105V200H115V142.857Z" />
<path d="M120 145.865H130V200H120V145.865Z" />
<path d="M145 153.383H135V200H145V153.383Z" />
<path d="M150 159.398H160V200H150V159.398Z" />
<path d="M175 165.414H165V200H175V165.414Z" />
<path d="M180 171.429H190V200H180V171.429Z" />
<path d="M205 168.421H195V200H205V168.421Z" />
<path d="M210 165.414H220V200H210V165.414Z" />
<path d="M235 171.429H225V200H235V171.429Z" />
<path d="M240 165.414H250V200H240V165.414Z" />
<path d="M265 171.429H255V200H265V171.429Z" />
<path d="M270 174.436H280V200H270V174.436Z" />
<path d="M295 177.444H285V200H295V177.444Z" />
<path d="M300 183.459H310V200H300V183.459Z" />
<path d="M325 187.97H315V200H325V187.97Z" />
<path d="M330 187.97H340V200H330V187.97Z" />
<path d="M355 183.459H345V200H355V183.459Z" />
<path d="M360 177.444H370V200H360V177.444Z" />
<path d="M385 174.436H375V200H385V174.436Z" />
<path d="M390 180.451H400V200H390V180.451Z" />
<path d="M415 183.459H405V200H415V183.459Z" />
<path d="M420 174.436H430V200H420V174.436Z" />
<path d="M445 165.414H435V200H445V165.414Z" />
<path d="M450 156.391H460V200H450V156.391Z" />
<path d="M475 150.376H465V200H475V150.376Z" />
<path d="M480 145.865H490V200H480V145.865Z" />
<path d="M505 150.376H495V200H505V150.376Z" />
<path d="M510 145.865H520V200H510V145.865Z" />
<path d="M535 139.85H525V200H535V139.85Z" />
<path d="M540 145.865H550V200H540V145.865Z" />
<path d="M565 142.857H555V200H565V142.857Z" />
<path d="M570 133.835H580V200H570V133.835Z" />
<path d="M595 121.805H585V200H595V121.805Z" />
<path d="M600 99.2481H610V200H600V99.2481Z" />
<path d="M625 61.6541H615V200H625V61.6541Z" />
<path d="M630 37.594H640V200H630V37.594Z" />
<path d="M655 10.5263H645V200H655V10.5263Z" />
</svg>
