<svg width="758" height="536" viewBox="0 0 758 536" fill="none" xmlns="http://www.w3.org/2000/svg">
<g filter="url(#filter0_d_5_783)">
<rect x="5" y="129" width="598" height="398" rx="19" fill="white" stroke="#A8A5A0" stroke-width="2"/>
<path d="M24 129H584C594.493 129 603 137.507 603 148V167H5V148C5 137.507 13.5066 129 24 129Z" stroke="#A8A5A0" stroke-width="2"/>
<rect x="54" y="213" width="216" height="96" rx="8" fill="#E8EAF6" stroke="#3F51B5" stroke-width="4" stroke-dasharray="8 8"/>
<rect x="52" y="338.083" width="40" height="40" rx="10" fill="#E8E7E4"/>
<rect x="112" y="338.083" width="40" height="40" rx="10" fill="#E8E7E4"/>
<rect x="172" y="338.083" width="40" height="40" rx="10" fill="#E8E7E4"/>
<rect x="232" y="338.083" width="40" height="40" rx="10" fill="#E8E7E4"/>
<rect x="52" y="406.917" width="200" height="20" rx="10" fill="#E8E7E4"/>
<rect x="52" y="456.333" width="140" height="20" rx="10" fill="#E8E7E4"/>
<rect x="314.077" y="213" width="236" height="36" rx="8" fill="#E8EAF6" stroke="#3F51B5" stroke-width="4" stroke-dasharray="8 8"/>
<rect x="312.077" y="279.833" width="200" height="20" rx="10" fill="#E8E7E4"/>
<rect x="312" y="436.833" width="240" height="40" rx="10" fill="#E8E7E4"/>
<rect x="312" y="338" width="140" height="20" rx="10" fill="#E8E7E4"/>
<rect x="312" y="387.417" width="200" height="20" rx="10" fill="#E8E7E4"/>
<path d="M474 1H734C744.493 1 753 9.50659 753 20V280C753 290.493 744.493 299 734 299H455V20C455 9.50659 463.507 1 474 1Z" fill="white" stroke="#A8A5A0" stroke-width="2"/>
<path d="M474 1H734C744.493 1 753 9.50659 753 20V39H455V20C455 9.50659 463.507 1 474 1Z" stroke="#A8A5A0" stroke-width="2"/>
<rect x="504" y="75" width="200" height="20" rx="10" fill="#E8E7E4"/>
<rect x="504" y="125" width="125" height="20" rx="10" fill="#E8E7E4"/>
<rect x="504" y="175" width="200" height="75" rx="25" fill="#FADFD9"/>
<path d="M558.729 221V204.2H565.569C566.489 204.2 567.321 204.432 568.065 204.896C568.809 205.36 569.397 205.984 569.829 206.768C570.269 207.544 570.489 208.4 570.489 209.336C570.489 210.056 570.369 210.728 570.129 211.352C569.889 211.968 569.545 212.516 569.097 212.996C568.657 213.468 568.137 213.848 567.537 214.136L571.521 221H567.369L563.577 214.472H562.329V221H558.729ZM562.329 210.872H565.137C565.457 210.872 565.749 210.792 566.013 210.632C566.277 210.464 566.489 210.244 566.649 209.972C566.809 209.7 566.889 209.4 566.889 209.072C566.889 208.744 566.809 208.444 566.649 208.172C566.489 207.9 566.277 207.684 566.013 207.524C565.749 207.356 565.457 207.272 565.137 207.272H562.329V210.872ZM573.448 221V204.2H584.152V207.8H577.048V210.2H582.52V213.8H577.048V217.4H584.152V221H573.448ZM594.56 221.312C593.424 221.312 592.356 221.088 591.356 220.64C590.356 220.184 589.476 219.556 588.716 218.756C587.964 217.956 587.372 217.032 586.94 215.984C586.516 214.928 586.304 213.8 586.304 212.6C586.304 211.392 586.516 210.264 586.94 209.216C587.372 208.16 587.964 207.236 588.716 206.444C589.476 205.644 590.356 205.02 591.356 204.572C592.356 204.116 593.424 203.888 594.56 203.888C595.92 203.888 597.172 204.204 598.316 204.836C599.46 205.46 600.408 206.296 601.16 207.344L597.944 209.072C597.528 208.592 597.028 208.208 596.444 207.92C595.86 207.632 595.232 207.488 594.56 207.488C593.92 207.488 593.316 207.62 592.748 207.884C592.188 208.148 591.692 208.516 591.26 208.988C590.836 209.452 590.504 209.992 590.264 210.608C590.024 211.224 589.904 211.888 589.904 212.6C589.904 213.304 590.024 213.964 590.264 214.58C590.504 215.196 590.836 215.74 591.26 216.212C591.692 216.676 592.188 217.044 592.748 217.316C593.316 217.58 593.92 217.712 594.56 217.712C595.232 217.712 595.86 217.568 596.444 217.28C597.028 216.984 597.528 216.592 597.944 216.104L601.16 217.856C600.408 218.896 599.46 219.732 598.316 220.364C597.172 220.996 595.92 221.312 594.56 221.312ZM610.99 221.312C609.854 221.312 608.786 221.088 607.786 220.64C606.786 220.184 605.906 219.556 605.146 218.756C604.386 217.956 603.79 217.032 603.358 215.984C602.926 214.928 602.71 213.8 602.71 212.6C602.71 211.4 602.926 210.276 603.358 209.228C603.79 208.172 604.386 207.244 605.146 206.444C605.906 205.644 606.786 205.02 607.786 204.572C608.786 204.116 609.854 203.888 610.99 203.888C612.134 203.888 613.206 204.116 614.206 204.572C615.206 205.02 616.086 205.644 616.846 206.444C617.606 207.244 618.198 208.172 618.622 209.228C619.054 210.276 619.27 211.4 619.27 212.6C619.27 213.8 619.054 214.928 618.622 215.984C618.198 217.032 617.606 217.956 616.846 218.756C616.086 219.556 615.206 220.184 614.206 220.64C613.206 221.088 612.134 221.312 610.99 221.312ZM610.99 217.712C611.63 217.712 612.23 217.58 612.79 217.316C613.358 217.044 613.858 216.676 614.29 216.212C614.722 215.74 615.058 215.196 615.298 214.58C615.546 213.964 615.67 213.304 615.67 212.6C615.67 211.896 615.546 211.236 615.298 210.62C615.058 210.004 614.722 209.464 614.29 209C613.858 208.528 613.358 208.16 612.79 207.896C612.23 207.624 611.63 207.488 610.99 207.488C610.35 207.488 609.746 207.624 609.178 207.896C608.618 208.16 608.122 208.528 607.69 209C607.258 209.464 606.918 210.004 606.67 210.62C606.43 211.236 606.31 211.896 606.31 212.6C606.31 213.304 606.43 213.964 606.67 214.58C606.918 215.196 607.258 215.74 607.69 216.212C608.122 216.676 608.618 217.044 609.178 217.316C609.746 217.58 610.35 217.712 610.99 217.712ZM621.307 221V204.2H628.147C629.067 204.2 629.899 204.432 630.643 204.896C631.387 205.36 631.975 205.984 632.407 206.768C632.847 207.544 633.067 208.4 633.067 209.336C633.067 210.056 632.947 210.728 632.707 211.352C632.467 211.968 632.123 212.516 631.675 212.996C631.235 213.468 630.715 213.848 630.115 214.136L634.099 221H629.947L626.155 214.472H624.907V221H621.307ZM624.907 210.872H627.715C628.035 210.872 628.327 210.792 628.591 210.632C628.855 210.464 629.067 210.244 629.227 209.972C629.387 209.7 629.467 209.4 629.467 209.072C629.467 208.744 629.387 208.444 629.227 208.172C629.067 207.9 628.855 207.684 628.591 207.524C628.327 207.356 628.035 207.272 627.715 207.272H624.907V210.872ZM636.026 221V204.2H641.594C642.754 204.2 643.838 204.42 644.846 204.86C645.862 205.292 646.754 205.896 647.522 206.672C648.298 207.44 648.902 208.332 649.334 209.348C649.774 210.356 649.994 211.44 649.994 212.6C649.994 213.76 649.774 214.848 649.334 215.864C648.902 216.872 648.298 217.764 647.522 218.54C646.754 219.308 645.862 219.912 644.846 220.352C643.838 220.784 642.754 221 641.594 221H636.026ZM639.626 217.4H641.594C642.242 217.4 642.854 217.276 643.43 217.028C644.006 216.78 644.518 216.436 644.966 215.996C645.414 215.556 645.762 215.048 646.01 214.472C646.266 213.888 646.394 213.264 646.394 212.6C646.394 211.936 646.266 211.316 646.01 210.74C645.762 210.164 645.414 209.656 644.966 209.216C644.526 208.768 644.018 208.42 643.442 208.172C642.866 207.924 642.25 207.8 641.594 207.8H639.626V217.4Z" fill="#E87057"/>
</g>
<defs>
<filter id="filter0_d_5_783" x="0" y="0" width="758" height="536" filterUnits="userSpaceOnUse" color-interpolation-filters="sRGB">
<feFlood flood-opacity="0" result="BackgroundImageFix"/>
<feColorMatrix in="SourceAlpha" type="matrix" values="0 0 0 0 0 0 0 0 0 0 0 0 0 0 0 0 0 0 127 0" result="hardAlpha"/>
<feOffset dy="4"/>
<feGaussianBlur stdDeviation="2"/>
<feComposite in2="hardAlpha" operator="out"/>
<feColorMatrix type="matrix" values="0 0 0 0 0 0 0 0 0 0 0 0 0 0 0 0 0 0 0.25 0"/>
<feBlend mode="normal" in2="BackgroundImageFix" result="effect1_dropShadow_5_783"/>
<feBlend mode="normal" in="SourceGraphic" in2="effect1_dropShadow_5_783" result="shape"/>
</filter>
</defs>
</svg>
