<svg width="608" height="408" viewBox="0 0 608 408" fill="none" xmlns="http://www.w3.org/2000/svg">
<g filter="url(#filter0_d_3_450)">
<rect x="5" y="1.00012" width="598" height="398" rx="19" fill="white" stroke="#A8A5A0" stroke-width="2"/>
<rect x="54" y="85.0001" width="216" height="96" rx="8" fill="#E8EAF6" stroke="#5C6BC0" stroke-width="4" stroke-dasharray="8 8"/>
<rect x="52" y="210.083" width="40" height="40" rx="10" fill="#E8E7E4"/>
<rect x="112" y="210.083" width="40" height="40" rx="10" fill="#E8E7E4"/>
<rect x="172" y="210.083" width="40" height="40" rx="10" fill="#E8E7E4"/>
<rect x="232" y="210.083" width="40" height="40" rx="10" fill="#E8E7E4"/>
<rect x="52" y="278.917" width="200" height="20" rx="10" fill="#E8E7E4"/>
<rect x="52" y="328.333" width="140" height="20" rx="10" fill="#E8E7E4"/>
<rect x="314.077" y="85.0001" width="236" height="36" rx="8" fill="#E8EAF6" stroke="#5C6BC0" stroke-width="4" stroke-dasharray="8 8"/>
<rect x="312.077" y="151.833" width="200" height="20" rx="10" fill="#E8E7E4"/>
<rect x="312" y="308.833" width="240" height="40" rx="10" fill="#E8E7E4"/>
<rect x="312" y="210" width="140" height="20" rx="10" fill="#E8E7E4"/>
<rect x="312" y="259.417" width="200" height="20" rx="10" fill="#E8E7E4"/>
<path d="M604 380C604 391.046 595.046 400 584 400L304 400L304 3.48083e-05L584 5.92867e-05C595.046 6.02523e-05 604 8.95437 604 20.0001L604 380Z" fill="#2D2E2E"/>
<rect x="355" y="89" width="75" height="20" rx="10" fill="#95928E"/>
<rect x="355" y="129" width="125" height="20" rx="10" fill="#95928E"/>
<rect x="355" y="169" width="100" height="20" rx="10" fill="#F8C868"/>
<path d="M482.475 189.8C480.875 189.8 479.7 189.542 478.95 189.025C478.2 188.508 477.825 187.583 477.825 186.25C477.825 185.65 477.842 185.133 477.875 184.7C477.925 184.25 477.967 183.817 478 183.4C478.05 182.983 478.075 182.508 478.075 181.975C478.075 181.675 477.975 181.392 477.775 181.125C477.575 180.842 477.225 180.608 476.725 180.425C476.242 180.242 475.55 180.142 474.65 180.125V177.975C475.55 177.958 476.242 177.858 476.725 177.675C477.225 177.492 477.575 177.267 477.775 177C477.975 176.717 478.075 176.425 478.075 176.125C478.075 175.608 478.05 175.142 478 174.725C477.967 174.292 477.925 173.85 477.875 173.4C477.842 172.95 477.825 172.433 477.825 171.85C477.825 170.5 478.2 169.575 478.95 169.075C479.7 168.558 480.875 168.3 482.475 168.3H484.4V170.25H483.375C482.692 170.25 482.167 170.3 481.8 170.4C481.433 170.5 481.175 170.675 481.025 170.925C480.892 171.175 480.825 171.533 480.825 172C480.825 172.667 480.842 173.325 480.875 173.975C480.925 174.625 480.95 175.325 480.95 176.075C480.95 177.025 480.758 177.717 480.375 178.15C479.992 178.567 479.35 178.85 478.45 179V179.1C479.35 179.25 479.992 179.542 480.375 179.975C480.758 180.392 480.95 181.075 480.95 182.025C480.95 182.775 480.925 183.475 480.875 184.125C480.842 184.775 480.825 185.433 480.825 186.1C480.825 186.567 480.892 186.925 481.025 187.175C481.175 187.425 481.433 187.6 481.8 187.7C482.167 187.8 482.692 187.85 483.375 187.85H484.4V189.8H482.475Z" fill="#A8A5A0"/>
<rect x="375" y="209" width="125" height="20" rx="10" fill="#5C6BC0"/>
<path d="M356.625 270.8V268.85H357.65C358.333 268.85 358.858 268.8 359.225 268.7C359.592 268.6 359.842 268.425 359.975 268.175C360.108 267.925 360.175 267.567 360.175 267.1C360.175 266.433 360.158 265.775 360.125 265.125C360.092 264.475 360.075 263.775 360.075 263.025C360.075 262.075 360.267 261.392 360.65 260.975C361.033 260.542 361.675 260.25 362.575 260.1V260C361.675 259.85 361.033 259.567 360.65 259.15C360.267 258.717 360.075 258.025 360.075 257.075C360.075 256.325 360.092 255.625 360.125 254.975C360.158 254.325 360.175 253.667 360.175 253C360.175 252.533 360.108 252.175 359.975 251.925C359.842 251.675 359.592 251.5 359.225 251.4C358.858 251.3 358.333 251.25 357.65 251.25H356.625V249.3H358.55C360.15 249.3 361.325 249.558 362.075 250.075C362.825 250.575 363.2 251.5 363.2 252.85C363.2 253.433 363.175 253.95 363.125 254.4C363.092 254.85 363.05 255.292 363 255.725C362.95 256.142 362.925 256.608 362.925 257.125C362.925 257.425 363.025 257.717 363.225 258C363.425 258.267 363.775 258.492 364.275 258.675C364.775 258.858 365.475 258.958 366.375 258.975V261.125C365.475 261.142 364.775 261.242 364.275 261.425C363.775 261.608 363.425 261.842 363.225 262.125C363.025 262.392 362.925 262.675 362.925 262.975C362.925 263.508 362.95 263.983 363 264.4C363.05 264.817 363.092 265.25 363.125 265.7C363.175 266.133 363.2 266.65 363.2 267.25C363.2 268.583 362.825 269.508 362.075 270.025C361.325 270.542 360.15 270.8 358.55 270.8H356.625Z" fill="#A8A5A0"/>
<rect x="355" y="291" width="200" height="20" rx="10" fill="#95928E"/>
</g>
<defs>
<filter id="filter0_d_3_450" x="0" y="3.05176e-05" width="608" height="408" filterUnits="userSpaceOnUse" color-interpolation-filters="sRGB">
<feFlood flood-opacity="0" result="BackgroundImageFix"/>
<feColorMatrix in="SourceAlpha" type="matrix" values="0 0 0 0 0 0 0 0 0 0 0 0 0 0 0 0 0 0 127 0" result="hardAlpha"/>
<feOffset dy="4"/>
<feGaussianBlur stdDeviation="2"/>
<feComposite in2="hardAlpha" operator="out"/>
<feColorMatrix type="matrix" values="0 0 0 0 0 0 0 0 0 0 0 0 0 0 0 0 0 0 0.25 0"/>
<feBlend mode="normal" in2="BackgroundImageFix" result="effect1_dropShadow_3_450"/>
<feBlend mode="normal" in="SourceGraphic" in2="effect1_dropShadow_3_450" result="shape"/>
</filter>
</defs>
</svg>
