<svg width="663" height="30" viewBox="0 0 663 30" fill="none" xmlns="http://www.w3.org/2000/svg">
<circle cx="1.5" cy="15" r="1.5" fill="#7AC6BF"/>
<circle cx="34.5" cy="15" r="1.5" fill="#6EBDB5"/>
<circle cx="67.5" cy="15" r="1.5" fill="#60B3AA"/>
<circle cx="100.5" cy="15" r="1.5" fill="#54A9A0"/>
<circle cx="133.5" cy="15" r="1.5" fill="#48A097"/>
<circle cx="166.5" cy="15" r="1.5" fill="#3C978C"/>
<circle cx="199.5" cy="15" r="1.5" fill="#2F8D82"/>
<circle cx="232.5" cy="15" r="1.5" fill="#228377"/>
<circle cx="265.5" cy="15" r="1.5" fill="#167A6E"/>
<circle cx="298.5" cy="15" r="1.5" fill="#086F63"/>
<circle cx="331.5" cy="15" r="1.5" fill="#056D60"/>
<circle cx="364.5" cy="15" r="1.5" fill="#13786C"/>
<circle cx="397.5" cy="15" r="1.5" fill="#208276"/>
<circle cx="430.5" cy="15" r="1.5" fill="#2D8C81"/>
<circle cx="463.5" cy="15" r="1.5" fill="#3A968C"/>
<circle cx="496.5" cy="15" r="1.5" fill="#48A097"/>
<circle cx="529.5" cy="15" r="1.5" fill="#56ABA2"/>
<circle cx="562.5" cy="15" r="1.5" fill="#63B5AD"/>
<circle cx="595.5" cy="15" r="1.5" fill="#6FBEB6"/>
<circle cx="628.5" cy="15" r="1.5" fill="#7FCAC3"/>
</svg>
